<svg xmlns="http://www.w3.org/2000/svg" xmlns:xlink="http://www.w3.org/1999/xlink" viewBox="0 0 32 32">
<path d="M9.6,25.6c-1.76,0-3.18,1.44-3.18,3.2c0,1.76,1.42,3.2,3.18,3.2s3.2-1.44,3.2-3.2C12.8,27.04,11.36,25.6,9.6,25.6z M0,0v3.2
	h3.2l5.76,12.14L6.8,19.26c-0.26,0.45-0.4,0.98-0.4,1.54c0,1.76,1.44,3.2,3.2,3.2h19.2v-3.2H10.27c-0.22,0-0.4-0.18-0.4-0.4
	l0.05-0.19l1.44-2.61h11.92c1.2,0,2.26-0.66,2.8-1.65l5.73-10.38C31.94,5.34,32,5.07,32,4.8c0-0.88-0.72-1.6-1.6-1.6H6.74L5.23,0
	C5.23,0,0,0,0,0z M25.6,25.6c-1.76,0-3.18,1.44-3.18,3.2c0,1.76,1.42,3.2,3.18,3.2c1.76,0,3.2-1.44,3.2-3.2
	C28.8,27.04,27.36,25.6,25.6,25.6z"/>
</svg>
