<?xml version="1.0" encoding="utf-8"?>
<!-- Generator: Adobe Illustrator 19.2.1, SVG Export Plug-In . SVG Version: 6.00 Build 0)  -->
<svg version="1.1" id="Layer_1" xmlns="http://www.w3.org/2000/svg" xmlns:xlink="http://www.w3.org/1999/xlink" x="0px" y="0px"
	 width="32px" height="32px" viewBox="0 0 32 32" enable-background="new 0 0 32 32" xml:space="preserve">
<path d="M22.87,20.13h-1.45l-0.51-0.49c1.79-2.09,2.87-4.79,2.87-7.74C23.79,5.32,18.46,0,11.89,0S0,5.32,0,11.89
	s5.32,11.89,11.89,11.89c2.95,0,5.65-1.08,7.74-2.87l0.49,0.51v1.45L29.27,32L32,29.27L22.87,20.13z M11.89,20.13
	c-4.56,0-8.23-3.68-8.23-8.23s3.68-8.23,8.23-8.23s8.23,3.68,8.23,8.23S16.45,20.13,11.89,20.13z"/>
</svg>
