<?xml version="1.0" encoding="utf-8"?>
<!-- Generator: Adobe Illustrator 19.2.1, SVG Export Plug-In . SVG Version: 6.00 Build 0)  -->
<svg version="1.1" id="Layer_1" xmlns="http://www.w3.org/2000/svg" xmlns:xlink="http://www.w3.org/1999/xlink" x="0px" y="0px"
	 width="32px" height="32px" viewBox="0 0 32 32" enable-background="new 0 0 32 32" xml:space="preserve">
<path d="M0,30.55h5.82V13.09H0V30.55z M32,14.55c0-1.6-1.31-2.91-2.91-2.91h-9.18l1.38-6.65l0.04-0.47c0-0.6-0.25-1.15-0.64-1.54
	l-1.54-1.53l-9.57,9.59c-0.54,0.52-0.86,1.25-0.86,2.05v14.55c0,1.6,1.31,2.91,2.91,2.91h13.09c1.21,0,2.24-0.73,2.68-1.77
	l4.39-10.25c0.13-0.33,0.2-0.68,0.2-1.06v-2.78l-0.01-0.01L32,14.55z"/>
</svg>
