<?xml version="1.0" encoding="utf-8"?>
<!-- Generator: Adobe Illustrator 19.2.1, SVG Export Plug-In . SVG Version: 6.00 Build 0)  -->
<svg version="1.1" id="Layer_1" xmlns="http://www.w3.org/2000/svg" xmlns:xlink="http://www.w3.org/1999/xlink" x="0px" y="0px"
	 width="32px" height="32px" viewBox="0 0 32 32" enable-background="new 0 0 32 32" xml:space="preserve">
<path d="M16,20.21c2.8,0,5.04-2.26,5.04-5.05l0.02-10.11C21.05,2.26,18.8,0,16,0s-5.05,2.26-5.05,5.05v10.11
	C10.95,17.95,13.2,20.21,16,20.21z M24.93,15.16c0,5.05-4.28,8.59-8.93,8.59s-8.93-3.54-8.93-8.59H4.21
	c0,5.74,4.58,10.49,10.11,11.32V32h3.37v-5.52c5.52-0.81,10.11-5.56,10.11-11.32H24.93z"/>
</svg>
